<?xml version="1.0" encoding="utf-8"?><svg version="1.1" id="Layer_1" xmlns="http://www.w3.org/2000/svg" xmlns:xlink="http://www.w3.org/1999/xlink" x="0px" y="0px" viewBox="0 0 120.49 122.88" style="enable-background:new 0 0 120.49 122.88" xml:space="preserve"><style type="text/css"><![CDATA[
	.st0{fill-rule:evenodd;clip-rule:evenodd;fill:#72BD39;}
	.st1{fill:#FFFFFF;}
	.st2{fill:none;stroke:#3E9C2A;stroke-width:2.8799;stroke-linecap:round;stroke-linejoin:round;stroke-miterlimit:2.6131;}
	.st3{fill:#3E9C2A;}
]]></style><g><path class="st3" d="M60.24,0c16.45,0,31.39,6.74,42.25,17.63c11.12,11.15,17.99,26.63,17.99,43.81c0,17.18-6.88,32.66-17.99,43.81 c-10.86,10.89-25.81,17.63-42.25,17.63c-16.45,0-31.39-6.74-42.25-17.63C6.88,94.1,0,78.62,0,61.44c0-17.18,6.88-32.66,17.99-43.81 C28.85,6.74,43.8,0,60.24,0L60.24,0z"/><path class="st0" d="M60.24,6.7c30.15,0,54.59,24.51,54.59,54.75c0,30.23-24.44,54.74-54.59,54.74S5.65,91.68,5.65,61.44 C5.65,31.21,30.09,6.7,60.24,6.7L60.24,6.7z"/><path class="st2" d="M57.61,55.12H44.23v-4.37c0-2.75-0.12-4.47-0.37-5.16c-0.25-0.7-0.85-1.04-1.77-1.04 c-0.8,0-1.35,0.29-1.64,0.89c-0.29,0.59-0.43,2.11-0.43,4.57v23.04c0,2.14,0.14,3.57,0.43,4.25c0.29,0.68,0.86,1.02,1.73,1.02 c0.95,0,1.59-0.38,1.94-1.15c0.33-0.77,0.51-2.28,0.51-4.51v-5.69h-2.6v-7.29h15.58v25.76H49.2l-1.23-3.44 c-0.91,1.49-2.06,2.6-3.43,3.35c-1.39,0.75-3.02,1.13-4.89,1.13c-2.24,0-4.33-0.51-6.29-1.53c-1.95-1.02-3.43-2.28-4.44-3.79 c-1.02-1.5-1.64-3.08-1.9-4.73c-0.25-1.65-0.38-4.13-0.38-7.43V54.72c0-4.59,0.26-7.92,0.79-9.99c0.53-2.09,2.05-3.99,4.54-5.72 c2.5-1.73,5.74-2.59,9.71-2.59c3.9,0,7.14,0.75,9.72,2.26c2.58,1.51,4.26,3.29,5.04,5.36c0.78,2.08,1.17,5.07,1.17,9.02V55.12 L57.61,55.12z M93.85,65.55c0,4.83-0.12,8.24-0.37,10.25c-0.24,2.01-1,3.85-2.27,5.51c-1.28,1.66-3.01,2.94-5.18,3.83 c-2.18,0.89-4.71,1.34-7.6,1.34c-2.75,0-5.21-0.43-7.39-1.27c-2.18-0.84-3.95-2.1-5.27-3.78c-1.33-1.68-2.12-3.51-2.38-5.49 c-0.25-1.98-0.38-5.45-0.38-10.39v-8.22c0-4.83,0.12-8.24,0.37-10.25c0.24-2.01,1-3.85,2.27-5.51c1.28-1.66,3.01-2.94,5.18-3.83 c2.17-0.89,4.71-1.34,7.6-1.34c2.75,0,5.2,0.42,7.39,1.27c2.18,0.84,3.95,2.1,5.27,3.78c1.33,1.68,2.12,3.51,2.38,5.49 c0.25,1.98,0.38,5.45,0.38,10.39V65.55L93.85,65.55z M80.47,49.77c0-2.23-0.13-3.66-0.39-4.28c-0.26-0.62-0.79-0.93-1.59-0.93 c-0.68,0-1.2,0.25-1.57,0.76c-0.36,0.5-0.54,1.98-0.54,4.46v22.42c0,2.79,0.12,4.51,0.36,5.15c0.24,0.66,0.79,0.98,1.66,0.98 c0.88,0,1.46-0.37,1.71-1.12c0.25-0.75,0.37-2.54,0.37-5.37V49.77L80.47,49.77z"/><path class="st1" d="M57.61,55.12H44.23v-4.37c0-2.75-0.12-4.47-0.37-5.16c-0.25-0.7-0.85-1.04-1.77-1.04 c-0.8,0-1.35,0.29-1.64,0.89c-0.29,0.59-0.43,2.11-0.43,4.57v23.04c0,2.14,0.14,3.57,0.43,4.25c0.29,0.68,0.86,1.02,1.73,1.02 c0.95,0,1.59-0.38,1.94-1.15c0.33-0.77,0.51-2.28,0.51-4.51v-5.69h-2.6v-7.29h15.58v25.76H49.2l-1.23-3.44 c-0.91,1.49-2.06,2.6-3.43,3.35c-1.39,0.75-3.02,1.13-4.89,1.13c-2.24,0-4.33-0.51-6.29-1.53c-1.95-1.02-3.43-2.28-4.44-3.79 c-1.02-1.5-1.64-3.08-1.9-4.73c-0.25-1.65-0.38-4.13-0.38-7.43V54.72c0-4.59,0.26-7.92,0.79-9.99c0.53-2.09,2.05-3.99,4.54-5.72 c2.5-1.73,5.74-2.59,9.71-2.59c3.9,0,7.14,0.75,9.72,2.26c2.58,1.51,4.26,3.29,5.04,5.36c0.78,2.08,1.17,5.07,1.17,9.02V55.12 L57.61,55.12z M93.85,65.55c0,4.83-0.12,8.24-0.37,10.25c-0.24,2.01-1,3.85-2.27,5.51c-1.28,1.66-3.01,2.94-5.18,3.83 c-2.18,0.89-4.71,1.34-7.6,1.34c-2.75,0-5.21-0.43-7.39-1.27c-2.18-0.84-3.95-2.1-5.27-3.78c-1.33-1.68-2.12-3.51-2.38-5.49 c-0.25-1.98-0.38-5.45-0.38-10.39v-8.22c0-4.83,0.12-8.24,0.37-10.25c0.24-2.01,1-3.85,2.27-5.51c1.28-1.66,3.01-2.94,5.18-3.83 c2.17-0.89,4.71-1.34,7.6-1.34c2.75,0,5.2,0.42,7.39,1.27c2.18,0.84,3.95,2.1,5.27,3.78c1.33,1.68,2.12,3.51,2.38,5.49 c0.25,1.98,0.38,5.45,0.38,10.39V65.55L93.85,65.55z M80.47,49.77c0-2.23-0.13-3.66-0.39-4.28c-0.26-0.62-0.79-0.93-1.59-0.93 c-0.68,0-1.2,0.25-1.57,0.76c-0.36,0.5-0.54,1.98-0.54,4.46v22.42c0,2.79,0.12,4.51,0.36,5.15c0.24,0.66,0.79,0.98,1.66,0.98 c0.88,0,1.46-0.37,1.71-1.12c0.25-0.75,0.37-2.54,0.37-5.37V49.77L80.47,49.77z"/></g></svg>